<svg class="icon--root icon--youtube" width="29" height="20" viewBox="0 0 29 20" xmlns="http://www.w3.org/2000/svg">
      <path d="M28.166 3.123c.596 2.228.596 6.877.596 6.877s0 4.649-.596 6.877a3.577 3.577 0 0 1-2.522 2.526C23.419 20 14.5 20 14.5 20s-8.92 0-11.145-.597a3.575 3.575 0 0 1-2.521-2.526C.238 14.649.238 10 .238 10s0-4.649.596-6.877A3.574 3.574 0 0 1 3.355.597C5.58 0 14.5 0 14.5 0s8.92 0 11.144.597a3.576 3.576 0 0 1 2.522 2.526ZM11.583 14.221 19.038 10l-7.455-4.221v8.442Z" fill="#000" fill-rule="evenodd"/>
    </svg>